# xmcd
#
# Track frame offsets:
#	150
#	16585
#	37130
#	53210
#	71350
#	87780
#	108990
#	126010
#	152565
#	167695
#	180210
#	200520
#	217925
#	242965
#	261275
#	275070
#	290820
#	311385
#	324655
#	344645
#
# Disc length: 4785 seconds
#
# Revision: 0
# Processed by: cddbd v1.5.1PL0 Copyright (c) Steve Scherf et al.
# Submitted via: audiograbber 1.81.03
#
DISCID=2212af14
DTITLE=Classic Country - Vol. 2
DYEAR=2004
DGENRE=Country
TTITLE0=Billy Ray Cyrus - Could´ve been me
TTITLE1=Alannah Myles - Black velvet
TTITLE2=John Mellencamp - Smalltown
TTITLE3=Bob Seger - American storm
TTITLE4=Garth Brooks - The red strokes
TTITLE5=Don Johnson - Heartache away
TTITLE6=Bruce Springsteen - Glory days
TTITLE7=Glenn Frey - Part of me, part of you
TTITLE8=Bonnie Tyler - It´s a heartache
TTITLE9=Elvis Presley - The last farewell
TTITLE10=Pussycat - Mississippi
TTITLE11=Lonestar - Amazed
TTITLE12=Jon Bon Jovi - Santa Fé
TTITLE13=Lobo - I´d love you tomorrow
TTITLE14=Smokie - San Francisco Bay
TTITLE15=Shania Twain - You´re still the one
TTITLE16=John Denver - Rocky Mountain High
TTITLE17=Olivia Newton John - Hopelessly devoted to you
TTITLE18=Kenny Rogers - Coward of the country
TTITLE19=Dr. Hook - Walk right in
EXTD=
EXTT0=
EXTT1=
EXTT2=
EXTT3=
EXTT4=
EXTT5=
EXTT6=
EXTT7=
EXTT8=
EXTT9=
EXTT10=
EXTT11=
EXTT12=
EXTT13=
EXTT14=
EXTT15=
EXTT16=
EXTT17=
EXTT18=
EXTT19=
PLAYORDER=
